<?xml version="1.0" encoding="UTF-8"?>
<!DOCTYPE svg PUBLIC "-//W3C//DTD SVG 1.1//EN" "http://www.w3.org/Graphics/SVG/1.1/DTD/svg11.dtd">
<!-- Creator: CorelDRAW X6 -->
<svg xmlns="http://www.w3.org/2000/svg" xml:space="preserve" width="122.068mm" height="15.1522mm" version="1.1" style="shape-rendering:geometricPrecision; text-rendering:geometricPrecision; image-rendering:optimizeQuality; fill-rule:evenodd; clip-rule:evenodd"
viewBox="0 0 8114 1007"
 xmlns:xlink="http://www.w3.org/1999/xlink"
 aria-hidden="true"
 focusable="false"
 data-prefix="far"
 data-icon="hospital"
 role="img">
 <defs>
  <style type="text/css">
   <![CDATA[
    .str0 {stroke:#3270AD;stroke-width:13.2935}
    .fil0 {fill:none}
   ]]>
  </style>
 </defs>
 <g id="Capa_x0020_1">
  <metadata id="CorelCorpID_0Corel-Layer"/>
  <g id="_632068320">
   <path class="fil0 str0" d="M2683 693l-63 -63c-4,-4 -11,-4 -15,0l-8 8c-4,4 -4,11 0,15l63 63c1,-5 4,-10 8,-14 4,-4 9,-7 14,-8l0 0zm68 208c-8,0 -17,-3 -23,-9 -6,-6 -9,-14 -9,-23l0 -8 -6 6c-12,12 -33,12 -45,0 -12,-12 -12,-33 0,-45l6 -6 -8 0c-8,0 -17,-3 -23,-9 -12,-12 -12,-33 0,-45 4,-4 10,-7 16,-9l-13 -13c-17,-17 -46,-16 -64,2 -21,21 -14,41 -8,67 12,55 32,108 61,156 3,6 7,11 12,16 0,0 0,0 0,0 29,29 79,20 100,-17l20 -35c-1,2 -2,3 -4,4 -6,6 -14,9 -22,9l8 -41zm113 -89c0,-3 -1,-6 -3,-8 -2,-2 -5,-3 -8,-3l-8 0c-36,-28 -46,-51 -33,-64l6 -6c4,-4 4,-11 0,-15 -4,-4 -11,-4 -15,0l-6 6c-13,13 -36,4 -36,-15l0 -8c0,-3 -1,-6 -3,-8 -4,-4 -11,-4 -15,0 -2,2 -3,5 -3,8l0 8c0,19 -23,28 -36,15l-6 -6c-4,-4 -11,-4 -15,0 -4,4 -4,11 0,15l6 6c13,13 4,36 -15,36l-8 0c-3,0 -6,1 -8,3 -4,4 -4,11 0,15 2,2 5,3 8,3l8 0c19,0 28,23 15,36l-6 6c-4,4 -4,11 0,15 4,4 11,4 15,0l6 -6c13,-13 36,-4 36,15l0 8c0,3 1,6 3,8 4,4 11,4 15,0 2,-2 3,-5 3,-8l0 -8c0,-19 23,-28 36,-15l6 6c4,4 11,4 15,0 4,-4 4,-11 0,-15l-6 -6c-13,-13 -4,-36 15,-36l8 0c3,0 6,-1 8,-3 2,-2 3,-5 3,-8l17 28zm-136 -20c-4,4 -11,4 -15,0 -4,-4 -4,-11 0,-15 4,-4 11,-4 15,0 4,4 4,11 0,15l0 0zm60 -15c-4,4 -11,4 -15,0 -4,-4 -4,-11 0,-15 4,-4 11,-4 15,0 4,0 8,2 11,4 6,6 6,15 0,21 -3,3 -7,4 -11,4l0 -15zm144 -138c-49,-28 -101,-49 -156,-61 -27,24 -47,17 -67,38 -18,18 -19,47 -2,64l13 13c1,-6 4,-12 9,-16 12,-12 33,-12 45,0 6,6 9,14 9,23l0 8 6 -6c12,-12 33,-12 45,0 12,12 12,33 0,45l-6 6 8 0c14,2 29,-1 41,-8l35 -20c56,36 64,-14 36,-43 0,0 0,0 0,0 -5,-5 -10,-9 -16,-12l0 -30z"/>
  </g>
  <g id="_632070000">
   <path class="fil0 str0" d="M8009 624l-13 13c-31,31 -83,9 -83,-34l0 -18c0,-6 -3,-12 -7,-16 -10,-10 -25,-10 -34,0 -4,4 -7,10 -7,16l0 18c0,43 -52,65 -83,34l-13 -13c-10,-10 -25,-10 -34,0 -10,10 -10,25 0,34l13 13c31,31 9,83 -34,83l-18 0c-6,0 -12,3 -16,7 -10,10 -10,25 0,34 4,4 10,7 16,7l18 0c43,0 65,52 34,83l-13 13c0,0 0,0 0,0 -10,10 -10,25 0,34 10,10 25,10 34,0 0,0 0,0 0,0l13 -13c31,-31 83,-9 83,34l0 18c0,6 3,12 7,16 10,10 25,10 34,0 4,-4 7,-10 7,-16l0 -18c0,-43 52,-65 83,-34l13 13c10,10 25,10 34,0 10,-10 10,-25 0,-34l-13 -13c-31,-31 -9,-83 34,-83l18 0c6,0 12,-3 16,-7 10,-10 10,-25 0,-34 -4,-4 -10,-7 -16,-7l-18 0c-43,0 -65,-52 -34,-83l13 -13c0,0 0,0 0,0 10,-10 10,-25 0,-34 -10,-10 -25,-10 -34,0 0,0 0,0 0,0l0 0zm-130 184c-16,16 -42,16 -58,0 -16,-16 -16,-42 0,-58 16,-16 42,-16 58,0 16,16 16,42 0,58l0 0zm82 -73c-8,8 -21,8 -29,0 -8,-8 -8,-21 0,-29 8,-8 21,-8 29,0 12,0 23,5 31,13 17,17 17,45 0,62 -8,8 -19,13 -31,13l0 -58z"/>
  </g>
  <g id="_632070648">
   <path class="fil0 str0" d="M4894 631c14,-14 14,-37 0,-51 -14,-14 -37,-14 -51,0 -14,14 -14,37 0,51 14,14 37,14 51,0zm-122 74c2,-4 4,-7 7,-10 0,0 0,0 0,0 3,-3 8,-6 12,-8l-18 -34c-1,-2 -2,-3 -3,-4 -7,-7 -17,-7 -24,-1 -7,5 -8,15 -4,23l24 46 6 -11zm-5 226c0,-1 1,-1 1,-2l-14 -14c-36,-36 -44,-90 -22,-135l27 -51 -39 -76c-1,-2 -2,-3 -3,-4 -7,-7 -17,-7 -24,-1 -7,5 -8,15 -4,23l39 74c1,2 1,5 -1,7 -2,2 -6,2 -8,0 0,0 -1,-1 -1,-1l-50 -96c-1,-2 -2,-3 -3,-4 -7,-7 -17,-7 -24,-1 -7,5 -8,15 -4,23l55 106c1,2 1,5 -1,7 -2,2 -6,2 -8,0 0,0 -1,-1 -1,-1l-44 -85c-1,-2 -2,-3 -3,-4 -7,-7 -17,-7 -24,-1 -7,5 -8,15 -4,23l69 133 -28 -25c0,0 0,0 0,0 -7,-7 -18,-7 -25,0 -7,7 -8,19 -1,26l60 60c23,23 57,31 89,23l0 0zm199 -252l-84 84c-2,2 -6,2 -8,0 -2,-2 -2,-6 0,-8l68 -68c0,0 0,0 0,0 7,-7 7,-18 0,-25 -1,-1 -2,-2 -3,-2 -7,-5 -17,-3 -23,3l-106 106 16 -34c4,-7 2,-16 -3,-21 -7,-7 -18,-7 -25,0 -1,1 -2,3 -3,4l-40 75c-18,36 -11,79 17,108 0,0 0,0 0,0l14 14c24,-16 55,-13 75,8 6,6 10,12 13,19 16,-4 31,-12 42,-23l110 -110c0,0 0,0 0,0 7,-7 7,-18 0,-25 -1,-1 -2,-2 -3,-2 -7,-5 -17,-3 -23,3l-50 50c-2,2 -6,2 -8,0 -2,-2 -2,-6 0,-8l68 -68c0,0 0,0 0,0 7,-7 7,-18 0,-25 -1,-1 -2,-2 -3,-2 -7,-5 -17,-3 -23,3l-67 67c-2,2 -6,2 -8,0 -2,-2 -2,-6 0,-8l85 -85c0,0 0,0 0,0 7,-7 7,-18 0,-25 -1,-1 -2,-2 -3,-2 -7,-5 -17,-3 -23,3zm-199 -90c9,-9 9,-25 0,-34 -9,-9 -25,-9 -34,0 -9,9 -9,25 0,34 9,9 25,9 34,0zm25 348c-14,14 -14,37 0,51 14,14 37,14 51,0 14,-14 14,-37 0,-51 -14,-14 -37,-14 -51,0l0 0z"/>
  </g>
  <path class="fil0 str0" d="M5853 761c-4,4 -4,11 0,16 4,4 11,4 16,0 4,-4 4,-11 0,-16 -4,-4 -11,-4 -16,0zm-47 0c-4,4 -4,11 0,16 4,4 11,4 16,0 4,-4 4,-11 0,-16 0,-4 -2,-8 -5,-11 -6,-6 -16,-6 -22,0 -3,3 -5,7 -5,11l16 0zm213 -100c-34,-13 -99,-51 -128,-56 -53,-20 -113,-6 -153,34 -2,2 -4,4 -6,7l-37 37c-52,52 -52,137 0,190 0,0 0,0 0,0 27,27 64,41 102,39l87 87 126 -126 -32 -32 32 -32c17,-17 17,-46 0,-63l-32 -32 16 -16c9,-9 9,-23 0,-32 -2,-2 -5,-4 -8,-5l32 0zm-119 52l-6 6c-14,14 -4,38 16,38l8 0c3,0 6,1 8,3 4,4 4,11 0,16 -2,2 -5,3 -8,3l-8 0c-20,0 -30,24 -16,38l6 6c4,4 4,11 0,16 -4,4 -11,4 -16,0l-6 -6c-14,-14 -38,-4 -38,16l0 8c0,3 -1,6 -3,8 -4,4 -11,4 -16,0 -2,-2 -3,-5 -3,-8l0 -8c0,-20 -24,-30 -38,-16l-6 6c-4,4 -11,4 -16,0 -4,-4 -4,-11 0,-16l6 -6c14,-14 4,-38 -16,-38l-8 0c-3,0 -6,-1 -8,-3 -4,-4 -4,-11 0,-16 2,-2 5,-3 8,-3l8 0c20,0 30,-24 16,-38l-6 -6c-4,-4 -4,-11 0,-16 4,-4 11,-4 16,0l6 6c14,14 38,4 38,-16l0 -8c0,-3 1,-6 3,-8 4,-4 11,-4 16,0 2,2 3,5 3,8l0 8c0,20 24,30 38,16l6 -6c4,-4 11,-4 16,0 4,4 4,11 0,16z"/>
  <g id="_632068080">
   <path class="fil0 str0" d="M3718 610l-115 115c-14,14 -14,36 0,49l213 213c14,14 36,14 49,0l115 -115c14,-14 14,-36 0,-49l-213 -213c-14,-14 -36,-14 -49,0zm189 304c-9,9 -24,9 -33,0 -9,-9 -9,-24 0,-33 9,-9 24,-9 33,0 9,9 9,24 0,33zm2 -113c3,3 3,9 0,12l-103 103c-3,3 -9,3 -12,0l-160 -160c-3,-3 -3,-9 0,-12l103 -103c3,-3 9,-3 12,0l160 160 0 0z"/>
  </g>
  <path class="fil0 str0" d="M694 841c-4,4 -4,11 0,15 4,4 11,4 15,0 4,-4 4,-11 0,-15 -4,-4 -11,-4 -15,0l0 0zm63 -164l-127 53c-4,2 -7,4 -10,7 -3,3 -5,7 -7,10l-52 127c-5,12 -2,26 7,35 0,0 0,0 0,0 93,93 211,104 282,74 4,-2 7,-4 10,-7 3,-3 5,-7 7,-10 23,-57 29,-178 -74,-282 0,0 0,0 0,0 -9,-9 -23,-12 -35,-7l0 0zm42 119l-6 6c-13,13 -4,36 15,36l8 0c3,0 6,1 7,3 4,4 4,11 0,15 -2,2 -5,3 -7,3l-8 0c-19,0 -28,23 -15,36l6 6c4,4 4,11 0,15 -4,4 -11,4 -15,0l-6 -6c-13,-13 -36,-4 -36,15l0 8c0,3 -1,6 -3,7 -4,4 -11,4 -15,0 -2,-2 -3,-5 -3,-7l0 -8c0,-19 -23,-28 -36,-15l-6 6c-4,4 -11,4 -15,0 -4,-4 -4,-11 0,-15l6 -6c13,-13 4,-36 -15,-36l-8 0c-3,0 -6,-1 -7,-3 -4,-4 -4,-11 0,-15 2,-2 5,-3 7,-3l8 0c19,0 28,-23 15,-36l-6 -6c-4,-4 -4,-11 0,-15 4,-4 11,-4 15,0l6 6c13,13 36,4 36,-15l0 -8c0,-3 1,-6 3,-7 4,-4 11,-4 15,0 2,2 3,5 3,7l0 8c0,19 23,28 36,15l6 -6c4,-4 11,-4 15,0 4,4 4,11 0,15zm-60 30c-4,4 -4,11 0,15 4,4 11,4 15,0 4,-4 4,-11 0,-15 -4,4 -4,11 0,15l-15 -15z"/>
  <g id="_637272920">
   <path class="fil0 str0" d="M1686 824l-35 35c-5,5 -13,5 -18,0l-35 -35c-5,-5 -5,-13 0,-18l35 -35c5,-5 13,-5 18,0l20 20c-1,-13 3,-26 13,-36l75 -75 0 -8c0,-3 -1,-5 -3,-7 -2,-2 -5,-3 -8,-3l-61 4 -53 -53c-5,-5 -13,-5 -18,0l-18 18c-5,5 -5,13 0,18l22 22 -91 6c-6,0 -14,4 -18,8 -4,4 -8,12 -8,18l-13 219c0,3 1,6 3,8 2,2 4,3 7,3l22 1c3,0 6,-2 8,-4 2,-2 3,-4 3,-7l1 -22 90 90c10,10 25,10 35,0l96 -96 -70 -70zm284 -108l-20 20 -88 -88c-10,-10 -25,-10 -33,-2l-126 126c-9,9 -8,24 2,33l88 88 -20 20c-3,3 -3,8 0,12l6 6c13,13 34,13 47,0l164 -164c13,-13 13,-34 0,-47l-6 -6c-3,-3 -8,-3 -12,0l0 0zm-47 47l-105 105 -79 -79 105 -105 79 79z"/>
  </g>
  <g id="_632562864">
   <path class="fil0 str0" d="M6781 794l-21 -21c-3,-3 -3,-9 0,-12l21 -21c3,-3 9,-3 12,0l21 21c3,3 3,9 0,12l-21 21c-3,3 -9,3 -12,0zm78 -66l21 -21c3,-3 3,-9 0,-12l-21 -21c-3,-3 -9,-3 -12,0l-21 21c-3,3 -3,9 0,12l21 21c3,3 9,3 12,0l0 0zm4 82l-21 -21c-3,-3 -9,-3 -12,0l-21 21c-3,3 -3,9 0,12l21 21c3,3 9,3 12,0l21 -21c3,-3 3,-9 0,-12zm45 -33l21 -21c3,-3 3,-9 0,-12l-21 -21c-3,-3 -9,-3 -12,0l-21 21c-3,3 -3,9 0,12l21 21c3,3 9,3 12,0l0 0zm156 -29l18 18 -230 230 -18 -18c-3,-3 -3,-9 0,-12l10 -10 -194 -194c-6,-6 -5,-16 2,-23l45 -45 -21 -21c-7,-7 -7,-18 0,-25l57 -57c7,-7 18,-7 25,0l21 21 45 -45c7,-7 17,-7 23,-2l195 195 10 -10c3,-3 9,-3 12,0zm-196 182l58 -58 -34 -34c-3,-3 -3,-9 0,-12l21 -21c3,-3 9,-3 12,0l34 34 58 -58 -180 -180 -33 33 12 12c7,7 7,18 0,25l-57 57c-7,7 -18,7 -25,0l-12 -12 -33 33 180 180zm-109 -301l-13 13 -13 -13c-2,-2 -4,-2 -6,0l-10 10c-2,2 -2,4 0,6l13 13 -13 13c-2,2 -2,4 0,6l10 10c2,2 4,2 6,0l13 -13 13 13c2,2 4,2 6,0l10 -10c2,-2 2,-4 0,-6l-13 -13 13 -13c2,-2 2,-4 0,-6l-10 -10c-2,-2 -4,-2 -6,0z"/>
  </g>
  <g id="_611387888">
   <path class="fil0 str0" d="M5283 220l-63 -63c-4,-4 -11,-4 -15,0l-8 8c-4,4 -4,11 0,15l63 63c1,-5 4,-10 8,-14 4,-4 9,-7 14,-8l0 0zm68 208c-8,0 -17,-3 -23,-9 -6,-6 -9,-14 -9,-23l0 -8 -6 6c-12,12 -33,12 -45,0 -12,-12 -12,-33 0,-45l6 -6 -8 0c-8,0 -17,-3 -23,-9 -12,-12 -12,-33 0,-45 4,-4 10,-7 16,-9l-13 -13c-17,-17 -46,-16 -64,2 -21,21 -14,41 -8,67 12,55 32,108 61,156 3,6 7,11 12,16 0,0 0,0 0,0 29,29 79,20 100,-17l20 -35c-1,2 -2,3 -4,4 -6,6 -14,9 -22,9l8 -41zm113 -89c0,-3 -1,-6 -3,-8 -2,-2 -5,-3 -8,-3l-8 0c-36,-28 -46,-51 -33,-64l6 -6c4,-4 4,-11 0,-15 -4,-4 -11,-4 -15,0l-6 6c-13,13 -36,4 -36,-15l0 -8c0,-3 -1,-6 -3,-8 -4,-4 -11,-4 -15,0 -2,2 -3,5 -3,8l0 8c0,19 -23,28 -36,15l-6 -6c-4,-4 -11,-4 -15,0 -4,4 -4,11 0,15l6 6c13,13 4,36 -15,36l-8 0c-3,0 -6,1 -8,3 -4,4 -4,11 0,15 2,2 5,3 8,3l8 0c19,0 28,23 15,36l-6 6c-4,4 -4,11 0,15 4,4 11,4 15,0l6 -6c13,-13 36,-4 36,15l0 8c0,3 1,6 3,8 4,4 11,4 15,0 2,-2 3,-5 3,-8l0 -8c0,-19 23,-28 36,-15l6 6c4,4 11,4 15,0 4,-4 4,-11 0,-15l-6 -6c-13,-13 -4,-36 15,-36l8 0c3,0 6,-1 8,-3 2,-2 3,-5 3,-8l17 28zm-136 -20c-4,4 -11,4 -15,0 -4,-4 -4,-11 0,-15 4,-4 11,-4 15,0 4,4 4,11 0,15l0 0zm60 -15c-4,4 -11,4 -15,0 -4,-4 -4,-11 0,-15 4,-4 11,-4 15,0 4,0 8,2 11,4 6,6 6,15 0,21 -3,3 -7,4 -11,4l0 -15zm144 -138c-49,-28 -101,-49 -156,-61 -27,24 -47,17 -67,38 -18,18 -19,47 -2,64l13 13c1,-6 4,-12 9,-16 12,-12 33,-12 45,0 6,6 9,14 9,23l0 8 6 -6c12,-12 33,-12 45,0 12,12 12,33 0,45l-6 6 8 0c14,2 29,-1 41,-8l35 -20c56,36 64,-14 36,-43 0,0 0,0 0,0 -5,-5 -10,-9 -16,-12l0 -30z"/>
  </g>
  <g id="_611388584">
   <path class="fil0 str0" d="M1351 70l-13 13c-31,31 -83,9 -83,-34l0 -18c0,-6 -3,-12 -7,-16 -10,-10 -25,-10 -34,0 -4,4 -7,10 -7,16l0 18c0,43 -52,65 -83,34l-13 -13c-10,-10 -25,-10 -34,0 -10,10 -10,25 0,34l13 13c31,31 9,83 -34,83l-18 0c-6,0 -12,3 -16,7 -10,10 -10,25 0,34 4,4 10,7 16,7l18 0c43,0 65,52 34,83l-13 13c0,0 0,0 0,0 -10,10 -10,25 0,34 10,10 25,10 34,0 0,0 0,0 0,0l13 -13c31,-31 83,-9 83,34l0 18c0,6 3,12 7,16 10,10 25,10 34,0 4,-4 7,-10 7,-16l0 -18c0,-43 52,-65 83,-34l13 13c10,10 25,10 34,0 10,-10 10,-25 0,-34l-13 -13c-31,-31 -9,-83 34,-83l18 0c6,0 12,-3 16,-7 10,-10 10,-25 0,-34 -4,-4 -10,-7 -16,-7l-18 0c-43,0 -65,-52 -34,-83l13 -13c0,0 0,0 0,0 10,-10 10,-25 0,-34 -10,-10 -25,-10 -34,0 0,0 0,0 0,0l0 0zm-130 184c-16,16 -42,16 -58,0 -16,-16 -16,-42 0,-58 16,-16 42,-16 58,0 16,16 16,42 0,58l0 0zm82 -73c-8,8 -21,8 -29,0 -8,-8 -8,-21 0,-29 8,-8 21,-8 29,0 12,0 23,5 31,13 17,17 17,45 0,62 -8,8 -19,13 -31,13l0 -58z"/>
  </g>
  <g id="_611388608">
   <path class="fil0 str0" d="M300 125c14,-14 14,-37 0,-51 -14,-14 -37,-14 -51,0 -14,14 -14,37 0,51 14,14 37,14 51,0zm-122 74c2,-4 4,-7 7,-10 0,0 0,0 0,0 3,-3 8,-6 12,-8l-18 -34c-1,-2 -2,-3 -3,-4 -7,-7 -17,-7 -24,-1 -7,5 -8,15 -4,23l24 46 6 -11zm-5 226c0,-1 1,-1 1,-2l-14 -14c-36,-36 -44,-90 -22,-135l27 -51 -39 -76c-1,-2 -2,-3 -3,-4 -7,-7 -17,-7 -24,-1 -7,5 -8,15 -4,23l39 74c1,2 1,5 -1,7 -2,2 -6,2 -8,0 0,0 -1,-1 -1,-1l-50 -96c-1,-2 -2,-3 -3,-4 -7,-7 -17,-7 -24,-1 -7,5 -8,15 -4,23l55 106c1,2 1,5 -1,7 -2,2 -6,2 -8,0 0,0 -1,-1 -1,-1l-44 -85c-1,-2 -2,-3 -3,-4 -7,-7 -17,-7 -24,-1 -7,5 -8,15 -4,23l69 133 -28 -25c0,0 0,0 0,0 -7,-7 -18,-7 -25,0 -7,7 -8,19 -1,26l60 60c23,23 57,31 89,23l0 0zm199 -252l-84 84c-2,2 -6,2 -8,0 -2,-2 -2,-6 0,-8l68 -68c0,0 0,0 0,0 7,-7 7,-18 0,-25 -1,-1 -2,-2 -3,-2 -7,-5 -17,-3 -23,3l-106 106 16 -34c4,-7 2,-16 -3,-21 -7,-7 -18,-7 -25,0 -1,1 -2,3 -3,4l-40 75c-18,36 -11,79 17,108 0,0 0,0 0,0l14 14c24,-16 55,-13 75,8 6,6 10,12 13,19 16,-4 31,-12 42,-23l110 -110c0,0 0,0 0,0 7,-7 7,-18 0,-25 -1,-1 -2,-2 -3,-2 -7,-5 -17,-3 -23,3l-50 50c-2,2 -6,2 -8,0 -2,-2 -2,-6 0,-8l68 -68c0,0 0,0 0,0 7,-7 7,-18 0,-25 -1,-1 -2,-2 -3,-2 -7,-5 -17,-3 -23,3l-67 67c-2,2 -6,2 -8,0 -2,-2 -2,-6 0,-8l85 -85c0,0 0,0 0,0 7,-7 7,-18 0,-25 -1,-1 -2,-2 -3,-2 -7,-5 -17,-3 -23,3zm-199 -90c9,-9 9,-25 0,-34 -9,-9 -25,-9 -34,0 -9,9 -9,25 0,34 9,9 25,9 34,0zm25 348c-14,14 -14,37 0,51 14,14 37,14 51,0 14,-14 14,-37 0,-51 -14,-14 -37,-14 -51,0l0 0z"/>
  </g>
  <path class="fil0 str0" d="M3272 257c-4,4 -4,11 0,16 4,4 11,4 16,0 4,-4 4,-11 0,-16 -4,-4 -11,-4 -16,0zm-47 0c-4,4 -4,11 0,16 4,4 11,4 16,0 4,-4 4,-11 0,-16 0,-4 -2,-8 -5,-11 -6,-6 -16,-6 -22,0 -3,3 -5,7 -5,11l16 0zm213 -100c-34,-13 -99,-51 -128,-56 -53,-20 -113,-6 -153,34 -2,2 -4,4 -6,7l-37 37c-52,52 -52,137 0,190 0,0 0,0 0,0 27,27 64,41 102,39l87 87 126 -126 -32 -32 32 -32c17,-17 17,-46 0,-63l-32 -32 16 -16c9,-9 9,-23 0,-32 -2,-2 -5,-4 -8,-5l32 0zm-119 52l-6 6c-14,14 -4,38 16,38l8 0c3,0 6,1 8,3 4,4 4,11 0,16 -2,2 -5,3 -8,3l-8 0c-20,0 -30,24 -16,38l6 6c4,4 4,11 0,16 -4,4 -11,4 -16,0l-6 -6c-14,-14 -38,-4 -38,16l0 8c0,3 -1,6 -3,8 -4,4 -11,4 -16,0 -2,-2 -3,-5 -3,-8l0 -8c0,-20 -24,-30 -38,-16l-6 6c-4,4 -11,4 -16,0 -4,-4 -4,-11 0,-16l6 -6c14,-14 4,-38 -16,-38l-8 0c-3,0 -6,-1 -8,-3 -4,-4 -4,-11 0,-16 2,-2 5,-3 8,-3l8 0c20,0 30,-24 16,-38l-6 -6c-4,-4 -4,-11 0,-16 4,-4 11,-4 16,0l6 6c14,14 38,4 38,-16l0 -8c0,-3 1,-6 3,-8 4,-4 11,-4 16,0 2,2 3,5 3,8l0 8c0,20 24,30 38,16l6 -6c4,-4 11,-4 16,0 4,4 4,11 0,16z"/>
  <g id="_611385176">
   <path class="fil0 str0" d="M6278 70l-115 115c-14,14 -14,36 0,49l213 213c14,14 36,14 49,0l115 -115c14,-14 14,-36 0,-49l-213 -213c-14,-14 -36,-14 -49,0zm189 304c-9,9 -24,9 -33,0 -9,-9 -9,-24 0,-33 9,-9 24,-9 33,0 9,9 9,24 0,33zm2 -113c3,3 3,9 0,12l-103 103c-3,3 -9,3 -12,0l-160 -160c-3,-3 -3,-9 0,-12l103 -103c3,-3 9,-3 12,0l160 160 0 0z"/>
  </g>
  <path class="fil0 str0" d="M4259 260c-4,4 -4,11 0,15 4,4 11,4 15,0 4,-4 4,-11 0,-15 -4,-4 -11,-4 -15,0l0 0zm63 -164l-127 53c-4,2 -7,4 -10,7 -3,3 -5,7 -7,10l-53 128c-5,12 -2,26 7,35 0,0 0,0 0,0 93,93 211,104 282,74 4,-2 7,-4 10,-7 3,-3 5,-7 7,-10 23,-57 29,-178 -74,-282 0,0 0,0 0,0 -9,-9 -23,-12 -35,-7l0 0zm42 119l-6 6c-13,13 -4,36 15,36l8 0c3,0 6,1 7,3 4,4 4,11 0,15 -2,2 -5,3 -7,3l-8 0c-19,0 -28,23 -15,36l6 6c4,4 4,11 0,15 -4,4 -11,4 -15,0l-6 -6c-13,-13 -36,-4 -36,15l0 8c0,3 -1,6 -3,8 -4,4 -11,4 -15,0 -2,-2 -3,-5 -3,-8l0 -8c0,-19 -23,-28 -36,-15l-6 6c-4,4 -11,4 -15,0 -4,-4 -4,-11 0,-15l6 -6c13,-13 4,-36 -15,-36l-8 0c-3,0 -6,-1 -7,-3 -4,-4 -4,-11 0,-15 2,-2 5,-3 7,-3l8 0c19,0 28,-23 15,-36l-6 -6c-4,-4 -4,-11 0,-15 4,-4 11,-4 15,0l6 6c13,13 36,4 36,-15l0 -8c0,-3 1,-6 3,-8 4,-4 11,-4 15,0 2,2 3,5 3,8l0 8c0,19 23,28 36,15l6 -6c4,-4 11,-4 15,0 4,4 4,11 0,15zm-60 30c-4,4 -4,11 0,15 4,4 11,4 15,0 4,-4 4,-11 0,-15 -4,4 -4,11 0,15l-15 -15z"/>
  <g id="_611386064">
   <path class="fil0 str0" d="M7368 290l-35 35c-5,5 -13,5 -18,0l-35 -35c-5,-5 -5,-13 0,-18l35 -35c5,-5 13,-5 18,0l20 20c-1,-13 3,-26 13,-36l75 -75 0 -8c0,-3 -1,-5 -3,-7 -2,-2 -5,-3 -8,-3l-61 4 -53 -53c-5,-5 -13,-5 -18,0l-18 18c-5,5 -5,13 0,18l22 22 -91 6c-6,0 -14,4 -18,8 -4,4 -8,12 -8,18l-13 219c0,3 1,6 3,8 2,2 4,3 7,3l22 1c3,0 6,-2 8,-4 2,-2 3,-4 3,-7l1 -22 90 90c10,10 25,10 35,0l96 -96 -70 -70zm284 -108l-20 20 -88 -88c-10,-10 -25,-10 -33,-2l-126 126c-9,9 -8,24 2,33l88 88 -20 20c-3,3 -3,8 0,12l6 6c13,13 34,13 47,0l164 -164c13,-13 13,-34 0,-47l-6 -6c-3,-3 -8,-3 -12,0l0 0zm-47 47l-105 105 -79 -79 105 -105 79 79z"/>
  </g>
  <g id="_611387024">
   <path class="fil0 str0" d="M2200 302l-21 -21c-3,-3 -3,-9 0,-12l21 -21c3,-3 9,-3 12,0l21 21c3,3 3,9 0,12l-21 21c-3,3 -9,3 -12,0zm78 -66l21 -21c3,-3 3,-9 0,-12l-21 -21c-3,-3 -9,-3 -12,0l-21 21c-3,3 -3,9 0,12l21 21c3,3 9,3 12,0l0 0zm4 82l-21 -21c-3,-3 -9,-3 -12,0l-21 21c-3,3 -3,9 0,12l21 21c3,3 9,3 12,0l21 -21c3,-3 3,-9 0,-12zm45 -33l21 -21c3,-3 3,-9 0,-12l-21 -21c-3,-3 -9,-3 -12,0l-21 21c-3,3 -3,9 0,12l21 21c3,3 9,3 12,0l0 0zm156 -29l18 18 -230 230 -18 -18c-3,-3 -3,-9 0,-12l10 -10 -194 -195c-6,-6 -5,-16 2,-23l45 -45 -21 -21c-7,-7 -7,-18 0,-25l57 -57c7,-7 18,-7 25,0l21 21 45 -45c7,-7 17,-7 23,-2l195 194 10 -10c3,-3 9,-3 12,0zm-196 182l58 -58 -34 -34c-3,-3 -3,-9 0,-12l21 -21c3,-3 9,-3 12,0l34 34 58 -58 -180 -180 -33 33 12 12c7,7 7,18 0,25l-57 57c-7,7 -18,7 -25,0l-12 -12 -33 33 180 180zm-109 -300l-13 13 -13 -13c-2,-2 -4,-2 -6,0l-10 10c-2,2 -2,4 0,6l13 13 -13 13c-2,2 -2,4 0,6l10 10c2,2 4,2 6,0l13 -13 13 13c2,2 4,2 6,0l10 -10c2,-2 2,-4 0,-6l-13 -13 13 -13c2,-2 2,-4 0,-6l-10 -10c-2,-2 -4,-2 -6,0z"/>
  </g>
 </g>
</svg>
